#!OML:ASF Y:\EmotionMaleHayes\Project 1\Capture day 1\Session 1\Male1.ASF
:FULLY-SPECIFIED
:DEGREES
1002
root 8.66382 16.9768 6.68452 -183.003 164.445 -178.449
lowerback 10.536 -0.403449 -6.70513
upperback 6.57385 -1.05444 -1.87306
thorax 1.0656 -0.669413 1.91361
lowerneck -18.7206 1.86571 3.62672
upperneck 38.65 0.851724 1.89308
head 17.3593 1.20827 0.399874
rclavicle -9.93923e-015 -1.35174e-014
rhumerus -34.5255 -5.63709 -67.1473
rradius 54.5988
rwrist -7.11767
rhand -7.66196 -27.5739
rfingers 7.12502
rthumb 18.2341 -56.7392
lclavicle -9.93923e-015 -1.35174e-014
lhumerus -23.0063 -6.01692 79.7988
lradius 30.38
lwrist -14.9898
lhand -10.2579 -22.925
lfingers 7.12502
lthumb 15.7353 6.45533
rfemur -4.08462 -6.32621 15.6177
rtibia 22.0491
rfoot -19.032 -13.3115
rtoes 17.8701
lfemur 14.258 -5.49792 -4.98511
ltibia 36.844
lfoot -2.8278 3.44731
ltoes -7.65642
1003
root 8.6699 17.0097 6.81994 -183.025 163.974 -178.476
lowerback 10.3511 -0.358052 -6.27249
upperback 6.46016 -0.949322 -1.73652
thorax 1.02731 -0.603976 1.80385
lowerneck -18.7734 1.79377 3.45128
upperneck 38.5185 0.807534 1.91792
head 17.2965 1.17108 0.432879
rclavicle 3.04141e-014 -1.43125e-014
rhumerus -34.587 -4.88103 -66.9406
rradius 55.5983
rwrist -7.00986
rhand -5.63256 -26.1029
rfingers 7.12502
rthumb 20.1855 -55.0741
lclavicle 3.04141e-014 -1.43125e-014
lhumerus -24.0685 -4.5399 79.8758
lradius 28.4866
lwrist -17.6789
lhand -8.45753 -21.9672
lfingers 7.12502
lthumb 17.4686 7.2679
rfemur -3.06348 -6.7614 15.4573
rtibia 21.4073
rfoot -19.1774 -12.8852
rtoes 18.0318
lfemur 13.6161 -5.03549 -5.08701
ltibia 37.4088
lfoot -3.71324 4.25821
ltoes -7.88114
1004
root 8.66513 17.0359 6.94507 -183.056 163.668 -178.56
lowerback 10.2083 -0.243219 -5.87416
upperback 6.36421 -0.758796 -1.63904
thorax 0.98069 -0.496532 1.66529
lowerneck -18.7831 1.73635 3.43244
upperneck 38.2967 0.733474 1.92632
head 17.1767 1.14096 0.422386
rclavicle 2.96189e-014 2.3059e-014
rhumerus -34.5167 -4.14339 -66.9691
rradius 56.6489
rwrist -7.25508
rhand -3.23397 -25.5085
rfingers 7.12502
rthumb 22.4894 -54.2189
lclavicle 2.96189e-014 2.3059e-014
lhumerus -25.1225 -3.72326 79.6384
lradius 26.8772
lwrist -20.1448
lhand -6.82724 -21.1483
lfingers 7.12502
lthumb 19.037 7.94006
rfemur -2.22147 -6.94952 15.5681
rtibia 20.9082
rfoot -19.5249 -12.6148
rtoes 18.5508
lfemur 12.9541 -4.40344 -5.04539
ltibia 37.9376
lfoot -4.5704 5.1392
ltoes -8.93559
1005
root 8.65404 17.0607 7.06152 -183.087 163.576 -178.71
lowerback 10.1919 -0.0463729 -5.46485
upperback 6.21064 -0.472013 -1.52948
thorax 0.800789 -0.337493 1.52589
lowerneck -18.6629 1.75669 3.49951
upperneck 37.9873 0.783134 1.86464
head 16.9801 1.16189 0.386466
rclavicle 3.20043e-014 4.69132e-014
rhumerus -34.402 -3.24575 -67.0743
rradius 57.6163
rwrist -7.71864
rhand -4.62318 -25.4897
rfingers 7.12502
rthumb 21.1554 -54.3555
lclavicle 3.20043e-014 4.69132e-014
lhumerus -26.1634 -1.59305 78.8485
lradius 25.2902
lwrist -24.5066
lhand -4.95562 -21.1527
lfingers 7.12502
lthumb 20.8361 7.74844
rfemur -1.51927 -6.50344 15.9553
rtibia 20.3966
rfoot -19.8622 -12.763
rtoes 19.2194
lfemur 12.2513 -3.67629 -4.97693
ltibia 38.509
lfoot -5.33444 6.0007
ltoes -9.9027
1006
root 8.64076 17.0836 7.17549 -183.052 163.514 -178.717
lowerback 10.1448 0.173306 -5.20959
upperback 6.05521 -0.164962 -1.44769
thorax 0.640032 -0.173116 1.44046
lowerneck -18.6695 1.84691 3.60853
upperneck 37.7714 0.928317 1.77191
head 16.8693 1.22478 0.351559
rclavicle 1.13307e-014 -8.74653e-015
rhumerus -34.3182 -2.00196 -67.1257
rradius 58.5863
rwrist -8.58949
rhand -5.01981 -25.7123
rfingers 7.12502
rthumb 20.7744 -54.6202
lclavicle 1.13307e-014 -8.74653e-015
lhumerus -27.2756 0.825313 77.8564
lradius 23.9102
lwrist -29.026
lhand -2.91203 -21.5634
lfingers 7.12502
lthumb 22.7984 7.10935
rfemur -0.828852 -6.26306 16.1127
rtibia 19.7929
rfoot -19.7832 -12.8548
rtoes 18.7412
lfemur 11.4389 -2.84333 -5.03179
ltibia 39.1295
lfoot -5.96802 6.40511
ltoes -9.37656
1007
root 8.63287 17.0999 7.28886 -183.001 163.45 -178.66
lowerback 10.0278 0.38399 -4.94488
upperback 5.94146 0.137756 -1.42738
thorax 0.563648 -0.0124473 1.28556
lowerneck -18.0049 1.69082 2.94471
upperneck 37.2112 0.773809 2.3186
head 16.3972 1.14034 0.662122
rclavicle 4.77083e-015 2.70347e-014
rhumerus -34.1785 -0.880036 -67.1646
rradius 59.4594
rwrist -9.45437
rhand -4.71273 -26.1159
rfingers 7.12502
rthumb 21.0694 -54.9913
lclavicle 4.77083e-015 2.70347e-014
lhumerus -28.3966 2.01005 76.9785
lradius 22.811
lwrist -32.1932
lhand -0.969704 -21.8145
lfingers 7.12502
lthumb 24.6612 6.6164
rfemur -0.149978 -6.51414 16.0735
rtibia 19.2523
rfoot -19.3493 -12.7763
rtoes 15.7583
lfemur 10.6744 -2.03276 -5.20544
ltibia 39.6083
lfoot -6.6138 6.6651
ltoes -8.95823
1008
root 8.63291 17.1129 7.39998 -183.018 163.438 -178.731
lowerback 9.87568 0.522005 -4.48763
upperback 5.8969 0.364832 -1.39062
thorax 0.585288 0.111726 1.04734
lowerneck -17.7363 1.71362 1.91253
upperneck 36.5289 0.6956 3.63989
head 15.9683 1.14644 1.38376
rclavicle 1.59028e-014 -2.74323e-014
rhumerus -33.6435 -0.0931519 -67.2555
rradius 59.9205
rwrist -9.89795
rhand -4.4569 -26.2854
rfingers 7.12502
rthumb 21.3152 -55.1332
lclavicle 1.59028e-014 -2.74323e-014
lhumerus -29.5333 3.38323 75.9501
lradius 21.8975
lwrist -35.2728
lhand 0.433598 -22.0821
lfingers 7.12502
lthumb 26.0056 6.15834
rfemur 0.52237 -6.73204 16.1824
rtibia 18.7739
rfoot -19.07 -12.7988
rtoes 12.4935
lfemur 10.0513 -1.41646 -5.47698
ltibia 39.8344
lfoot -7.20637 7.10486
ltoes -9.45922
1009
root 8.63474 17.1257 7.50718 -183.102 163.508 -178.936
lowerback 9.79451 0.677158 -3.91515
upperback 5.86131 0.619081 -1.30247
thorax 0.580027 0.251785 0.795283
lowerneck -19.1476 2.17431 4.56772
upperneck 37.6336 1.37667 0.965824
head 16.9436 1.43755 -0.082489
rclavicle -3.71727e-014 1.15295e-014
rhumerus -32.9994 0.774047 -67.2753
rradius 60.2131
rwrist -10.5391
rhand -4.69334 -26.4036
rfingers 7.12502
rthumb 21.088 -55.2769
lclavicle -3.71727e-014 1.15295e-014
lhumerus -30.8064 5.28498 74.721
lradius 21.165
lwrist -38.5123
lhand 1.30404 -22.4868
lfingers 7.12502
lthumb 26.8388 5.62841
rfemur 1.19341 -6.7777 16.4464
rtibia 18.2867
rfoot -18.9732 -12.8781
rtoes 10.511
lfemur 9.35943 -0.59943 -5.57192
ltibia 40.1414
lfoot -7.83869 7.42723
ltoes -10.3296
1010
root 8.62353 17.128 7.60674 -183.066 163.566 -179.22
lowerback 9.73677 0.925471 -3.46817
upperback 5.71705 0.981134 -1.10585
thorax 0.446786 0.443246 0.714692
lowerneck -19.0525 1.93426 3.69792
upperneck 37.2657 1.0003 1.86161
head 16.6998 1.28696 0.389452
rclavicle -1.49089e-014 -2.18663e-014
rhumerus -32.4572 1.54581 -67.0921
rradius 60.4397
rwrist -11.0534
rhand -5.32201 -26.9547
rfingers 7.12502
rthumb 20.484 -55.8941
lclavicle -1.49089e-014 -2.18663e-014
lhumerus -32.1562 6.49123 73.7112
lradius 20.5586
lwrist -41.0413
lhand 1.74675 -22.7118
lfingers 7.12502
lthumb 27.2624 5.33768
rfemur 1.68911 -6.67953 16.9798
rtibia 17.7725
rfoot -18.8966 -12.9872
rtoes 9.28636
lfemur 8.36233 0.510458 -5.34678
ltibia 40.6787
lfoot -8.67148 7.26594
ltoes -11.1286
1011
root 8.63516 17.1367 7.71193 -183.225 163.798 -179.749
lowerback 9.65576 1.17725 -2.59028
upperback 5.64198 1.38596 -0.861938
thorax 0.407487 0.6629 0.43803
lowerneck -17.9983 1.65873 1.49698
upperneck 36.016 0.553123 4.23088
head 15.7726 1.12021 1.67594
rclavicle -8.94531e-016 -1.86858e-014
rhumerus -31.7751 2.15992 -66.8676
rradius 60.4574
rwrist -11.087
rhand -5.75739 -27.5051
rfingers 7.12502
rthumb 20.0656 -56.4889
lclavicle -8.94531e-016 -1.86858e-014
lhumerus -33.5317 6.77712 73.1017
lradius 20.1722
lwrist -42.2936
lhand 2.02708 -22.7868
lfingers 7.12502
lthumb 27.5305 5.22021
rfemur 2.39321 -6.47591 17.621
rtibia 17.1988
rfoot -18.8174 -12.8613
rtoes 8.71571
lfemur 7.74464 1.23696 -5.23103
ltibia 40.914
lfoot -9.69882 7.31715
ltoes -10.6004
1012
root 8.64161 17.1432 7.81173 -183.288 164.049 -180.473
lowerback 9.46783 1.38384 -1.50169
upperback 5.55582 1.74885 -0.657353
thorax 0.432894 0.865922 0.00938333
lowerneck -18.7201 1.79146 2.99129
upperneck 36.6394 0.77733 2.6502
head 16.2802 1.2066 0.801394
rclavicle -3.06128e-014 1.74931e-014
rhumerus -31.0179 2.82967 -66.8518
rradius 60.3879
rwrist -11.1931
rhand -6.01271 -27.8187
rfingers 7.12502
rthumb 19.8201 -56.8281
lclavicle -3.06128e-014 1.74931e-014
lhumerus -34.8554 6.31707 72.6112
lradius 20.0289
lwrist -42.392
lhand 2.4684 -23.2305
lfingers 7.12502
lthumb 27.9525 4.70859
rfemur 2.90202 -6.1471 18.5996
rtibia 16.6802
rfoot -18.8459 -12.6936
rtoes 8.00122
lfemur 6.85107 2.16039 -4.79963
ltibia 41.2348
lfoot -10.5316 7.21738
ltoes -10.606
